<svg id="iconfinder_10_icons_2191540" xmlns="http://www.w3.org/2000/svg" width="30.479" height="24.88" viewBox="0 0 30.479 24.88">
  <path id="XMLID_22_" d="M15.881,18.036V37.262l13.956-3.73V14.283L15.881,18.036ZM0,13.657H0v-.024H0l.024-.024h0c0-.024.024-.024.024-.048h0c0-.024.024-.024.048-.048H.144c.024,0,.048-.024.072-.024H.289L15.4,17.17,30.2,13.2h.072c.024,0,.048,0,.048.024h.048l.048.048h0c.024.024.024.048.048.072h0V33.267a.41.41,0,0,1-.024.168l.024.048a.464.464,0,0,1-.337.577L15.231,38.056c-.048,0-.072.024-.12.024a.409.409,0,0,1-.168-.024L.361,34.374A.467.467,0,0,1,.024,33.8l.024-.048A.229.229,0,0,1,0,33.58V13.657ZM.962,33.532l13.956,3.73V18.012L.962,14.283V33.532ZM18.648,19.985l8.133-2.19a.473.473,0,1,1,.241.914L18.888,20.9a.473.473,0,0,1-.241-.914Zm0,6.713,8.133-2.19a.473.473,0,1,1,.241.914l-8.133,2.19a.464.464,0,0,1-.577-.337.486.486,0,0,1,.337-.577Zm0-3.369,8.133-2.19a.473.473,0,1,1,.241.914l-8.133,2.19a.464.464,0,0,1-.577-.337A.486.486,0,0,1,18.648,23.33Z" transform="translate(0 -13.2)" fill-rule="evenodd"/>
  <path id="XMLID_16_" d="M4,36.949V17.7l13.956,3.754V40.7L4,36.949ZM21.685,23.4l8.133-2.19a.473.473,0,1,1,.241.914l-8.133,2.19a.473.473,0,0,1-.241-.914Zm0,6.713,8.133-2.19a.473.473,0,1,1,.241.914l-8.133,2.19a.464.464,0,0,1-.577-.337.486.486,0,0,1,.337-.577Zm0-3.369,8.133-2.19a.473.473,0,1,1,.241.914l-8.133,2.19a.464.464,0,0,1-.577-.337.486.486,0,0,1,.337-.577Zm-2.767-5.294V40.679l13.956-3.73V17.7Z" transform="translate(-3.038 -16.617)" fill="#7aced7" fill-rule="evenodd"/>
</svg>
