<svg xmlns="http://www.w3.org/2000/svg" width="28.641" height="23.312" viewBox="0 0 28.641 23.312">
  <g id="Group_1255" data-name="Group 1255" transform="translate(-17449.168 -8032.296)">
    <circle id="XMLID_8_" cx="3.608" cy="3.608" r="3.608" transform="translate(17469.215 8036.133)" fill="#ee7f6f"/>
    <circle id="XMLID_4_" cx="3.608" cy="3.608" r="3.608" transform="translate(17450.545 8036.133)" fill="#ee7f6f"/>
    <path id="XMLID_3_" d="M66.156,48a3.484,3.484,0,0,1-4.582,0,2.747,2.747,0,0,0-.974.286,4.452,4.452,0,0,1,1.833,3.666v4.353a2.147,2.147,0,0,1-.057.63h3.437A3.056,3.056,0,0,0,68.848,53.9V51.036A3.045,3.045,0,0,0,66.156,48Z" transform="translate(17408.961 7994.778)" fill="#ee7f6f"/>
    <path id="XMLID_9_" d="M31.415,51.852a4.7,4.7,0,0,1,1.833-3.666,4.837,4.837,0,0,0-.974-.286,3.484,3.484,0,0,1-4.582,0A3.031,3.031,0,0,0,25,50.878v2.864a3.056,3.056,0,0,0,3.036,3.036h3.437a2.349,2.349,0,0,1-.057-.63Z" transform="translate(17424.168 7994.821)" fill="#ee7f6f"/>
    <path id="XMLID_5_" d="M50.059,47.859A4.84,4.84,0,0,0,47.882,47a5.178,5.178,0,0,1-3.437,1.26A5.489,5.489,0,0,1,41.009,47a4.84,4.84,0,0,0-2.177.859A4.452,4.452,0,0,0,37,51.525v4.353a2.147,2.147,0,0,0,.057.63A4.557,4.557,0,0,0,41.525,60.4h5.957a4.557,4.557,0,0,0,4.468-3.895,2.35,2.35,0,0,0,.057-.63V51.525A4.626,4.626,0,0,0,50.059,47.859Z" transform="translate(17419.043 7995.205)" fill="#1ea5c5"/>
    <circle id="XMLID_6_" cx="5.384" cy="5.384" r="5.384" transform="translate(17458.105 8032.296)" fill="#1ea5c5"/>
  </g>
</svg>
