<svg xmlns="http://www.w3.org/2000/svg" width="25.181" height="30.104" viewBox="0 0 25.181 30.104">
  <g id="Group_1383" data-name="Group 1383" transform="translate(0.409 0.409)">
    <path id="Path_1720" data-name="Path 1720" d="M20.217,39.878h0a.958.958,0,0,1-1.116-.761L14.809,16.465a.958.958,0,0,1,.761-1.116h0a.958.958,0,0,1,1.116.761l4.292,22.652A.958.958,0,0,1,20.217,39.878Z" transform="translate(-13.106 -10.566)" fill="#f4f4f4"/>
    <circle id="Ellipse_114" data-name="Ellipse 114" cx="1.644" cy="1.644" r="1.644" transform="translate(0 0.612) rotate(-10.729)" fill="#f4f4f4"/>
    <path id="Path_1721" data-name="Path 1721" d="M37.005,19.805,20.619,30.523a.189.189,0,0,1-.289-.123L17.545,15.7a.189.189,0,0,1,.224-.22l19.171,3.98A.189.189,0,0,1,37.005,19.805Z" transform="translate(-12.672 -10.543)" fill="red"/>
    <path id="Path_1722" data-name="Path 1722" d="M20.217,39.878h0a.958.958,0,0,1-1.116-.761L14.809,16.465a.958.958,0,0,1,.761-1.116h0a.958.958,0,0,1,1.116.761l4.292,22.652A.958.958,0,0,1,20.217,39.878Z" transform="translate(-13.106 -10.566)" fill="none" stroke="#303030" stroke-linecap="round" stroke-linejoin="round" stroke-miterlimit="10" stroke-width="0.7"/>
    <circle id="Ellipse_115" data-name="Ellipse 115" cx="1.644" cy="1.644" r="1.644" transform="translate(0 0.612) rotate(-10.729)" stroke-width="0.7" stroke="#303030" stroke-linecap="round" stroke-linejoin="round" stroke-miterlimit="10" fill="none"/>
    <path id="Path_1723" data-name="Path 1723" d="M37.005,19.805,20.619,30.523a.189.189,0,0,1-.289-.123L17.545,15.7a.189.189,0,0,1,.224-.22l19.171,3.98A.189.189,0,0,1,37.005,19.805Z" transform="translate(-12.672 -10.543)" fill="none" stroke="#303030" stroke-linecap="round" stroke-linejoin="round" stroke-miterlimit="10" stroke-width="0.7"/>
  </g>
</svg>
