<svg id="Group_561" data-name="Group 561" xmlns="http://www.w3.org/2000/svg" width="28.152" height="28.152" viewBox="0 0 28.152 28.152">
  <path id="path7210" d="M24.076,10a14.076,14.076,0,0,0,0,28.152c.117,0,.231-.013.347-.02l.122,0c.147-.007.293-.015.44-.024s.3-.038.445-.054c.323-.033.647-.063.963-.117.123-.021.24-.059.362-.083.407-.08.814-.16,1.207-.274a13.951,13.951,0,0,0,8.925-7.766c.01-.022.025-.041.034-.063a13.974,13.974,0,0,0,.684-1.862c.017-.061.029-.124.044-.186.048-.2.091-.4.132-.6.025-.123.059-.243.083-.367s.067-.251.088-.381c.049-.3.063-.606.093-.909.027-.281.07-.556.083-.841.008-.176.024-.35.024-.528a14.1,14.1,0,0,0-.112-1.681c-.013-.112-.038-.221-.054-.332A14.064,14.064,0,0,0,24.076,10Z" transform="translate(-10 -10)" fill="#258bdc"/>
  <g id="layer15" transform="translate(0 0)">
    <path id="path7204" d="M39.105,64.681c1.221-4.4,3.7-7.515,7.309-9.185a16.4,16.4,0,0,1,3.795-1.128c.3,0,.3-.009.3-2.184V50l3.73,3.73,3.73,3.73-3.73,3.73-3.73,3.73V60.551H49.6a16.257,16.257,0,0,0-6.754,1.639,13.123,13.123,0,0,0-3.115,2.5l-.895.949.266-.959Z" transform="translate(-34.173 -43.744)" fill="#ececec"/>
    <path id="rect2995" d="M23.076,10a14.076,14.076,0,1,0,0,28.152Z" transform="translate(-9 -10)" fill="#fff" opacity="0.15"/>
  </g>
</svg>
