<svg xmlns="http://www.w3.org/2000/svg" width="31.366" height="28.229" viewBox="0 0 31.366 28.229">
  <path id="iconfinder_like_outline_309057" d="M24.583,7.137a5.622,5.622,0,0,1,5.646,5.646c0,3.137-6.116,10.037-12.546,15.369C11.253,22.662,5.137,15.762,5.137,12.782a5.622,5.622,0,0,1,5.646-5.646c3.764,0,6.9,4.7,6.9,4.7s2.98-4.7,6.9-4.7m0-3.137a8.471,8.471,0,0,0-6.9,3.607A8.471,8.471,0,0,0,10.782,4,8.768,8.768,0,0,0,2,12.782c0,6.9,15.683,19.447,15.683,19.447S33.366,19.683,33.366,12.782A8.768,8.768,0,0,0,24.583,4Z" transform="translate(-2 -4)" fill="red"/>
</svg>
