<svg xmlns="http://www.w3.org/2000/svg" width="18" height="18" viewBox="0 0 18 18">
  <path id="iconfinder_new-24_103173" d="M17.883,5.39A9.44,9.44,0,0,0,14.6,2.132L15.727,1a4.04,4.04,0,0,1,2.455.818A4.04,4.04,0,0,1,19,4.273Zm-9.52,9.519H5.091V11.636l.393-.393a6.851,6.851,0,0,1,3.273,3.273Zm8.575-8.575L9.7,13.571a9.5,9.5,0,0,0-1.43-1.824,9.452,9.452,0,0,0-1.856-1.435l7.252-7.251a6.842,6.842,0,0,1,3.273,3.273ZM3.455,3.455V16.545H16.545V10.818L19,8.333v9.031A1.636,1.636,0,0,1,17.364,19H2.636A1.636,1.636,0,0,1,1,17.364V2.636A1.637,1.637,0,0,1,2.636,1h9.008L9.189,3.455Z" transform="translate(-1 -1)" fill="#023fa7"/>
</svg>
