<svg id="iconfinder_remind_3007553" xmlns="http://www.w3.org/2000/svg" width="24.892" height="24.898" viewBox="0 0 24.892 24.898">
  <g id="Background" transform="translate(0 0)">
    <path id="Path_1650" data-name="Path 1650" d="M43.692,28.344A3.253,3.253,0,0,1,40.438,31.6H22.054A3.253,3.253,0,0,1,18.8,28.344V9.954A3.253,3.253,0,0,1,22.054,6.7H40.438a3.253,3.253,0,0,1,3.254,3.254Z" transform="translate(-18.8 -6.7)" fill="#fb0"/>
  </g>
  <g id="Symbol" transform="translate(4.337 6.582)">
    <path id="Path_1651" data-name="Path 1651" d="M117.55,137.215A3.475,3.475,0,0,0,114.69,134a6.364,6.364,0,0,0-4.994-2.1c-2.629,0-4.847,1.272-5.52,3.012a4.329,4.329,0,0,0,1.451,8.406,4.271,4.271,0,0,0,2.3-.662l.205,1.887a.479.479,0,0,0,.862.237l1.877-2.492a2.991,2.991,0,0,0,.436.037,2.777,2.777,0,0,0,2.592-1.782A3.613,3.613,0,0,0,117.55,137.215Z" transform="translate(-101.3 -131.9)" fill="#fff"/>
  </g>
</svg>
