<svg id="iconfinder_10_icons_2191540" xmlns="http://www.w3.org/2000/svg" width="27.451" height="22.408" viewBox="0 0 27.451 22.408">
  <path id="XMLID_22_" d="M14.3,17.556V34.871l12.569-3.359V14.175L14.3,17.556ZM0,13.612H0V13.59H0l.022-.022h0c0-.022.022-.022.022-.043h0c0-.022.022-.022.043-.043H.13c.022,0,.043-.022.065-.022H.26L13.87,16.776,27.2,13.2h.065c.022,0,.043,0,.043.022h.043l.043.043h0c.022.022.022.043.043.065h0V31.274a.369.369,0,0,1-.022.152l.022.043a.418.418,0,0,1-.3.52l-13.414,3.6c-.043,0-.065.022-.108.022a.369.369,0,0,1-.152-.022L.325,32.27a.42.42,0,0,1-.3-.52l.022-.043A.206.206,0,0,1,0,31.555V13.612Zm.867,17.9,12.569,3.359V17.534L.867,14.175V31.512ZM16.8,19.311l7.325-1.972a.426.426,0,1,1,.217.823l-7.325,1.972a.426.426,0,1,1-.217-.823Zm0,6.046,7.325-1.972a.426.426,0,1,1,.217.823l-7.325,1.972a.418.418,0,0,1-.52-.3.438.438,0,0,1,.3-.52Zm0-3.034,7.325-1.972a.426.426,0,1,1,.217.823l-7.325,1.972a.418.418,0,0,1-.52-.3A.438.438,0,0,1,16.8,22.323Z" transform="translate(0 -13.2)" fill-rule="evenodd"/>
  <path id="XMLID_16_" d="M4,35.037V17.7l12.569,3.381V38.417L4,35.037Zm15.928-12.2,7.325-1.972a.426.426,0,1,1,.217.823l-7.325,1.972a.426.426,0,1,1-.217-.823Zm0,6.046,7.325-1.972a.426.426,0,1,1,.217.823l-7.325,1.972a.418.418,0,0,1-.52-.3.438.438,0,0,1,.3-.52Zm0-3.034,7.325-1.972a.426.426,0,1,1,.217.823l-7.325,1.972a.418.418,0,0,1-.52-.3.438.438,0,0,1,.3-.52Zm-2.492-4.768V38.4l12.569-3.359V17.7Z" transform="translate(-3.133 -16.725)" fill="#7aced7" fill-rule="evenodd"/>
</svg>
