<svg id="Group_561" data-name="Group 561" xmlns="http://www.w3.org/2000/svg" width="33.848" height="33.848" viewBox="0 0 33.848 33.848">
  <path id="path7210" d="M26.924,10a16.924,16.924,0,0,0,0,33.848c.141,0,.278-.016.417-.024l.147-.006c.176-.009.353-.018.529-.029s.355-.046.535-.065c.388-.04.777-.076,1.158-.141.148-.025.288-.071.435-.1.489-.1.979-.192,1.451-.329a16.774,16.774,0,0,0,10.73-9.338c.012-.027.03-.05.041-.076A16.8,16.8,0,0,0,43.19,31.5c.021-.073.035-.149.053-.223.058-.237.109-.476.159-.717.031-.148.071-.292.1-.441s.08-.3.106-.458c.058-.358.076-.728.112-1.093.033-.337.085-.668.1-1.011.009-.212.029-.421.029-.635a16.95,16.95,0,0,0-.135-2.021c-.016-.135-.045-.266-.064-.4A16.91,16.91,0,0,0,26.924,10Z" transform="translate(-10 -10)" fill="#258bdc"/>
  <g id="layer15" transform="translate(0 0)">
    <path id="path7204" d="M39.159,67.652c1.467-5.3,4.444-9.036,8.788-11.043a19.72,19.72,0,0,1,4.562-1.356c.362,0,.364-.011.364-2.626V50l4.484,4.484,4.484,4.484-4.484,4.484-4.484,4.484V62.686H51.782a19.546,19.546,0,0,0-8.121,1.97,15.777,15.777,0,0,0-3.745,3.007L38.839,68.8l.32-1.153Z" transform="translate(-33.228 -42.479)" fill="#ececec"/>
    <path id="rect2995" d="M25.924,10a16.924,16.924,0,1,0,0,33.848Z" transform="translate(-9 -10)" fill="#fff" opacity="0.15"/>
  </g>
</svg>
