<svg xmlns="http://www.w3.org/2000/svg" xmlns:xlink="http://www.w3.org/1999/xlink" width="33.172" height="31.66" viewBox="0 0 33.172 31.66">
  <defs>
    <linearGradient id="linear-gradient" x1="0.5" y1="0.254" x2="0.5" y2="0.808" gradientUnits="objectBoundingBox">
      <stop offset="0" stop-color="#ffe100"/>
      <stop offset="1" stop-color="#edaa00"/>
    </linearGradient>
  </defs>
  <g id="icons" transform="translate(-7.43 -8.16)">
    <g id="Layer_3" data-name="Layer 3">
      <path id="Path_1747" data-name="Path 1747" d="M25.71,9.23l3.64,7.37a1.89,1.89,0,0,0,1.43,1l8.13,1.18A1.91,1.91,0,0,1,40,22.07l-5.89,5.74a1.9,1.9,0,0,0-.55,1.68l1.39,8.1a1.9,1.9,0,0,1-2.76,2l-7.27-3.83a1.91,1.91,0,0,0-1.77,0L15.84,39.6a1.9,1.9,0,0,1-2.76-2l1.39-8.1a1.9,1.9,0,0,0-.55-1.68L8,22.07a1.91,1.91,0,0,1,1.06-3.25l8.13-1.18a1.92,1.92,0,0,0,1.44-1l3.63-7.37a1.91,1.91,0,0,1,3.45-.04Z" fill="url(#linear-gradient)"/>
    </g>
  </g>
</svg>
