<svg xmlns="http://www.w3.org/2000/svg" width="38" height="38" viewBox="0 0 38 38">
  <g id="Group_887" data-name="Group 887" transform="translate(-673.938 -1855)">
    <g id="Group_561" data-name="Group 561" transform="translate(673.937 1855)">
      <path id="path7210" d="M29,10a19,19,0,0,0,0,38c.158,0,.312-.018.468-.026l.165-.007c.2-.01.4-.02.594-.033s.4-.052.6-.073c.436-.045.873-.085,1.3-.158.166-.028.323-.08.488-.112.549-.108,1.1-.216,1.63-.369A18.832,18.832,0,0,0,46.291,36.738c.013-.03.033-.056.046-.086a18.863,18.863,0,0,0,.924-2.513c.023-.082.039-.167.059-.251.065-.266.122-.535.178-.8.034-.166.079-.328.112-.495s.09-.339.119-.514c.066-.4.085-.818.125-1.227.037-.379.095-.75.112-1.135.011-.238.033-.472.033-.713a19.029,19.029,0,0,0-.152-2.269c-.018-.152-.051-.3-.072-.449A18.984,18.984,0,0,0,29,10Z" transform="translate(-10 -10)" fill="#258bdc"/>
      <g id="layer15" transform="translate(0 0)">
        <path id="path7204" d="M39.2,69.817c1.647-5.945,4.989-10.144,9.866-12.4A22.139,22.139,0,0,1,54.186,55.9c.407,0,.408-.012.408-2.948V50l5.034,5.034,5.034,5.034L59.628,65.1l-5.034,5.034v-5.9H53.369a21.944,21.944,0,0,0-9.117,2.212,17.713,17.713,0,0,0-4.2,3.376l-1.208,1.281.359-1.295Z" transform="translate(-32.54 -41.556)" fill="#ececec"/>
        <path id="rect2995" d="M28,10a19,19,0,1,0,0,38Z" transform="translate(-9 -10)" fill="#fff" opacity="0.15"/>
      </g>
    </g>
  </g>
</svg>
