<svg xmlns="http://www.w3.org/2000/svg" width="38" height="38" viewBox="0 0 38 38">
  <g id="Group_886" data-name="Group 886" transform="translate(-476.07 -1857)" opacity="0.8">
    <path id="iconfinder_like_outline_309057" d="M29.36,8.222c3.8,0,6.84,3.378,6.84,7.6S28.79,29.333,21,36.511C13.21,29.122,5.8,19.833,5.8,15.822c0-4.222,3.04-7.6,6.84-7.6,4.56,0,8.36,6.333,8.36,6.333s3.61-6.333,8.36-6.333M29.36,4A10.007,10.007,0,0,0,21,8.856,10.007,10.007,0,0,0,12.64,4C6.75,4,2,9.278,2,15.822,2,25.111,21,42,21,42S40,25.111,40,15.822C40,9.278,35.25,4,29.36,4Z" transform="translate(474.071 1853)" fill="red"/>
  </g>
</svg>
